<mxfile host="app.diagrams.net" modified="2023-03-20T12:09:48.736Z" agent="5.0 (Windows NT 10.0; Win64; x64) AppleWebKit/537.36 (KHTML, like Gecko) Chrome/110.0.0.0 Safari/537.36" etag="1VJqys9m53mAXsT4umIS" version="21.0.8" type="github">
  <diagram id="6a731a19-8d31-9384-78a2-239565b7b9f0" name="Page-1">
    <mxGraphModel dx="1434" dy="764" grid="1" gridSize="10" guides="1" tooltips="1" connect="1" arrows="1" fold="1" page="1" pageScale="1" pageWidth="1169" pageHeight="827" background="none" math="0" shadow="0">
      <root>
        <mxCell id="0" />
        <mxCell id="1" parent="0" />
        <mxCell id="NiZLrQsZlZNXoxHf6VPg-61" style="edgeStyle=orthogonalEdgeStyle;rounded=0;orthogonalLoop=1;jettySize=auto;html=1;entryX=0.5;entryY=0;entryDx=0;entryDy=0;" edge="1" parent="1" source="NiZLrQsZlZNXoxHf6VPg-57" target="NiZLrQsZlZNXoxHf6VPg-59">
          <mxGeometry relative="1" as="geometry" />
        </mxCell>
        <mxCell id="NiZLrQsZlZNXoxHf6VPg-57" value="python表文件" style="rounded=0;whiteSpace=wrap;html=1;" vertex="1" parent="1">
          <mxGeometry x="180" y="110" width="120" height="60" as="geometry" />
        </mxCell>
        <mxCell id="NiZLrQsZlZNXoxHf6VPg-62" style="edgeStyle=orthogonalEdgeStyle;rounded=0;orthogonalLoop=1;jettySize=auto;html=1;entryX=0.5;entryY=0;entryDx=0;entryDy=0;" edge="1" parent="1" source="NiZLrQsZlZNXoxHf6VPg-58" target="NiZLrQsZlZNXoxHf6VPg-60">
          <mxGeometry relative="1" as="geometry" />
        </mxCell>
        <mxCell id="NiZLrQsZlZNXoxHf6VPg-58" value="共享内存表" style="rounded=0;whiteSpace=wrap;html=1;" vertex="1" parent="1">
          <mxGeometry x="540" y="110" width="120" height="60" as="geometry" />
        </mxCell>
        <mxCell id="NiZLrQsZlZNXoxHf6VPg-64" style="rounded=0;orthogonalLoop=1;jettySize=auto;html=1;entryX=0.5;entryY=0;entryDx=0;entryDy=0;" edge="1" parent="1" source="NiZLrQsZlZNXoxHf6VPg-59" target="NiZLrQsZlZNXoxHf6VPg-63">
          <mxGeometry relative="1" as="geometry" />
        </mxCell>
        <mxCell id="NiZLrQsZlZNXoxHf6VPg-59" value="mtime of file" style="rounded=0;whiteSpace=wrap;html=1;" vertex="1" parent="1">
          <mxGeometry x="180" y="240" width="120" height="60" as="geometry" />
        </mxCell>
        <mxCell id="NiZLrQsZlZNXoxHf6VPg-65" style="rounded=0;orthogonalLoop=1;jettySize=auto;html=1;exitX=0.5;exitY=1;exitDx=0;exitDy=0;entryX=0.5;entryY=0;entryDx=0;entryDy=0;" edge="1" parent="1" source="NiZLrQsZlZNXoxHf6VPg-60" target="NiZLrQsZlZNXoxHf6VPg-63">
          <mxGeometry relative="1" as="geometry" />
        </mxCell>
        <mxCell id="NiZLrQsZlZNXoxHf6VPg-60" value="create_time" style="rounded=0;whiteSpace=wrap;html=1;" vertex="1" parent="1">
          <mxGeometry x="540" y="240" width="120" height="60" as="geometry" />
        </mxCell>
        <mxCell id="NiZLrQsZlZNXoxHf6VPg-67" style="edgeStyle=orthogonalEdgeStyle;rounded=0;orthogonalLoop=1;jettySize=auto;html=1;exitX=0.5;exitY=1;exitDx=0;exitDy=0;entryX=0.5;entryY=0;entryDx=0;entryDy=0;" edge="1" parent="1" source="NiZLrQsZlZNXoxHf6VPg-63" target="NiZLrQsZlZNXoxHf6VPg-66">
          <mxGeometry relative="1" as="geometry" />
        </mxCell>
        <mxCell id="NiZLrQsZlZNXoxHf6VPg-70" style="edgeStyle=orthogonalEdgeStyle;rounded=0;orthogonalLoop=1;jettySize=auto;html=1;exitX=1;exitY=0.5;exitDx=0;exitDy=0;entryX=1;entryY=0.5;entryDx=0;entryDy=0;" edge="1" parent="1" source="NiZLrQsZlZNXoxHf6VPg-63" target="NiZLrQsZlZNXoxHf6VPg-69">
          <mxGeometry relative="1" as="geometry" />
        </mxCell>
        <mxCell id="NiZLrQsZlZNXoxHf6VPg-63" value="mt_time &amp;gt; create_time?" style="rhombus;whiteSpace=wrap;html=1;" vertex="1" parent="1">
          <mxGeometry x="320" y="349" width="200" height="80" as="geometry" />
        </mxCell>
        <mxCell id="NiZLrQsZlZNXoxHf6VPg-71" style="edgeStyle=orthogonalEdgeStyle;rounded=0;orthogonalLoop=1;jettySize=auto;html=1;entryX=0.5;entryY=0;entryDx=0;entryDy=0;" edge="1" parent="1" source="NiZLrQsZlZNXoxHf6VPg-66" target="NiZLrQsZlZNXoxHf6VPg-69">
          <mxGeometry relative="1" as="geometry" />
        </mxCell>
        <mxCell id="NiZLrQsZlZNXoxHf6VPg-66" value="添加到热更清单中" style="rounded=0;whiteSpace=wrap;html=1;" vertex="1" parent="1">
          <mxGeometry x="360" y="495" width="120" height="60" as="geometry" />
        </mxCell>
        <mxCell id="NiZLrQsZlZNXoxHf6VPg-68" value="yes" style="text;html=1;align=center;verticalAlign=middle;resizable=0;points=[];autosize=1;strokeColor=none;fillColor=none;" vertex="1" parent="1">
          <mxGeometry x="420" y="436" width="40" height="30" as="geometry" />
        </mxCell>
        <mxCell id="NiZLrQsZlZNXoxHf6VPg-69" value="End" style="ellipse;whiteSpace=wrap;html=1;" vertex="1" parent="1">
          <mxGeometry x="360" y="625" width="120" height="80" as="geometry" />
        </mxCell>
        <mxCell id="NiZLrQsZlZNXoxHf6VPg-73" value="no" style="text;html=1;align=center;verticalAlign=middle;resizable=0;points=[];autosize=1;strokeColor=none;fillColor=none;" vertex="1" parent="1">
          <mxGeometry x="530" y="500" width="40" height="30" as="geometry" />
        </mxCell>
        <mxCell id="NiZLrQsZlZNXoxHf6VPg-77" style="edgeStyle=orthogonalEdgeStyle;rounded=0;orthogonalLoop=1;jettySize=auto;html=1;entryX=0.5;entryY=0;entryDx=0;entryDy=0;" edge="1" parent="1" source="NiZLrQsZlZNXoxHf6VPg-74" target="NiZLrQsZlZNXoxHf6VPg-75">
          <mxGeometry relative="1" as="geometry" />
        </mxCell>
        <mxCell id="NiZLrQsZlZNXoxHf6VPg-74" value="读表" style="rounded=0;whiteSpace=wrap;html=1;" vertex="1" parent="1">
          <mxGeometry x="1100" y="110" width="120" height="60" as="geometry" />
        </mxCell>
        <mxCell id="NiZLrQsZlZNXoxHf6VPg-78" style="edgeStyle=orthogonalEdgeStyle;rounded=0;orthogonalLoop=1;jettySize=auto;html=1;entryX=0.5;entryY=0;entryDx=0;entryDy=0;" edge="1" parent="1" source="NiZLrQsZlZNXoxHf6VPg-75" target="NiZLrQsZlZNXoxHf6VPg-76">
          <mxGeometry relative="1" as="geometry" />
        </mxCell>
        <mxCell id="NiZLrQsZlZNXoxHf6VPg-84" style="rounded=0;orthogonalLoop=1;jettySize=auto;html=1;exitX=0;exitY=0.5;exitDx=0;exitDy=0;entryX=0.5;entryY=0;entryDx=0;entryDy=0;" edge="1" parent="1" source="NiZLrQsZlZNXoxHf6VPg-75" target="NiZLrQsZlZNXoxHf6VPg-81">
          <mxGeometry relative="1" as="geometry" />
        </mxCell>
        <mxCell id="NiZLrQsZlZNXoxHf6VPg-75" value="判断是否在热更清单中" style="rhombus;whiteSpace=wrap;html=1;" vertex="1" parent="1">
          <mxGeometry x="1050" y="250" width="220" height="80" as="geometry" />
        </mxCell>
        <mxCell id="NiZLrQsZlZNXoxHf6VPg-80" style="edgeStyle=orthogonalEdgeStyle;rounded=0;orthogonalLoop=1;jettySize=auto;html=1;entryX=0.5;entryY=0;entryDx=0;entryDy=0;" edge="1" parent="1" source="NiZLrQsZlZNXoxHf6VPg-76" target="NiZLrQsZlZNXoxHf6VPg-79">
          <mxGeometry relative="1" as="geometry" />
        </mxCell>
        <mxCell id="NiZLrQsZlZNXoxHf6VPg-82" style="rounded=0;orthogonalLoop=1;jettySize=auto;html=1;exitX=0;exitY=0.5;exitDx=0;exitDy=0;" edge="1" parent="1" source="NiZLrQsZlZNXoxHf6VPg-76" target="NiZLrQsZlZNXoxHf6VPg-81">
          <mxGeometry relative="1" as="geometry" />
        </mxCell>
        <mxCell id="NiZLrQsZlZNXoxHf6VPg-76" value="mt &amp;gt; create_time?" style="rhombus;whiteSpace=wrap;html=1;" vertex="1" parent="1">
          <mxGeometry x="1065" y="400" width="190" height="80" as="geometry" />
        </mxCell>
        <mxCell id="NiZLrQsZlZNXoxHf6VPg-89" style="edgeStyle=orthogonalEdgeStyle;rounded=0;orthogonalLoop=1;jettySize=auto;html=1;" edge="1" parent="1" source="NiZLrQsZlZNXoxHf6VPg-79" target="NiZLrQsZlZNXoxHf6VPg-88">
          <mxGeometry relative="1" as="geometry" />
        </mxCell>
        <mxCell id="NiZLrQsZlZNXoxHf6VPg-79" value="共享内存表" style="rounded=0;whiteSpace=wrap;html=1;" vertex="1" parent="1">
          <mxGeometry x="1100" y="555" width="120" height="60" as="geometry" />
        </mxCell>
        <mxCell id="NiZLrQsZlZNXoxHf6VPg-90" style="rounded=0;orthogonalLoop=1;jettySize=auto;html=1;exitX=0.5;exitY=1;exitDx=0;exitDy=0;entryX=0;entryY=0.5;entryDx=0;entryDy=0;" edge="1" parent="1" source="NiZLrQsZlZNXoxHf6VPg-81" target="NiZLrQsZlZNXoxHf6VPg-88">
          <mxGeometry relative="1" as="geometry" />
        </mxCell>
        <mxCell id="NiZLrQsZlZNXoxHf6VPg-81" value="python表文件" style="rounded=0;whiteSpace=wrap;html=1;" vertex="1" parent="1">
          <mxGeometry x="860" y="555" width="120" height="60" as="geometry" />
        </mxCell>
        <mxCell id="NiZLrQsZlZNXoxHf6VPg-83" value="yes" style="text;html=1;align=center;verticalAlign=middle;resizable=0;points=[];autosize=1;strokeColor=none;fillColor=none;" vertex="1" parent="1">
          <mxGeometry x="1000" y="485" width="40" height="30" as="geometry" />
        </mxCell>
        <mxCell id="NiZLrQsZlZNXoxHf6VPg-85" value="yes" style="text;html=1;align=center;verticalAlign=middle;resizable=0;points=[];autosize=1;strokeColor=none;fillColor=none;" vertex="1" parent="1">
          <mxGeometry x="960" y="395" width="40" height="30" as="geometry" />
        </mxCell>
        <mxCell id="NiZLrQsZlZNXoxHf6VPg-86" value="no" style="text;html=1;align=center;verticalAlign=middle;resizable=0;points=[];autosize=1;strokeColor=none;fillColor=none;" vertex="1" parent="1">
          <mxGeometry x="1160" y="349" width="40" height="30" as="geometry" />
        </mxCell>
        <mxCell id="NiZLrQsZlZNXoxHf6VPg-87" value="no" style="text;html=1;align=center;verticalAlign=middle;resizable=0;points=[];autosize=1;strokeColor=none;fillColor=none;" vertex="1" parent="1">
          <mxGeometry x="1150" y="505" width="40" height="30" as="geometry" />
        </mxCell>
        <mxCell id="NiZLrQsZlZNXoxHf6VPg-88" value="返回数据" style="ellipse;whiteSpace=wrap;html=1;" vertex="1" parent="1">
          <mxGeometry x="1100" y="700" width="120" height="80" as="geometry" />
        </mxCell>
        <mxCell id="NiZLrQsZlZNXoxHf6VPg-92" value="热更流程" style="text;html=1;align=center;verticalAlign=middle;resizable=0;points=[];autosize=1;strokeColor=none;fillColor=none;" vertex="1" parent="1">
          <mxGeometry x="180" y="80" width="70" height="30" as="geometry" />
        </mxCell>
        <mxCell id="NiZLrQsZlZNXoxHf6VPg-93" value="读表流程" style="text;html=1;align=center;verticalAlign=middle;resizable=0;points=[];autosize=1;strokeColor=none;fillColor=none;" vertex="1" parent="1">
          <mxGeometry x="1099" y="80" width="70" height="30" as="geometry" />
        </mxCell>
      </root>
    </mxGraphModel>
  </diagram>
</mxfile>
